# xmcd CD database file
#
# Track frame offsets:
#	150
#	14655
#	27659
#	40729
#	55509
#	68577
#	81379
#	94904
#	114433
#	133033
#
# Disc length: 1940 seconds
#
# Revision: 3
# Processed by: cddbd v1.5.1PL2 Copyright (c) Steve Scherf et al.
# Submitted via: CDex 1.51
#
DISCID=8207920a
DTITLE=Various Artist - Christmas In The Smokies
DYEAR=1996
DGENRE=Christmas
TTITLE0=BJ Thomas - Jingle Bells
TTITLE1=Helen Cornelius - The First Noel
TTITLE2=Con Hunley - Jolly Old St Nicholas
TTITLE3=The Four Guys - O'Come All Ye Faithful
TTITLE4=The Four Guys - Away In A Manger
TTITLE5=Eddie Rabbitt - Deck The Halls
TTITLE6=Stella Parton - Hark The Herald Angels Sing
TTITLE7=Helen Cornelius - O'Holy Night
TTITLE8=Con Hunley - It Came Upon A Midnight Clear
TTITLE9=The Four Guys - Go Tell It On The Mountain and We Wish You A Merry Christmas
EXTD=YEAR: 1996
EXTT0=
EXTT1=
EXTT2=
EXTT3=
EXTT4=
EXTT5=
EXTT6=
EXTT7=
EXTT8=
EXTT9=
PLAYORDER=
